<svg xmlns="http://www.w3.org/2000/svg" viewBox="0 0 328.45 214.33"><defs><style>.cls-1,.cls-2{fill:none;stroke-miterlimit:10;stroke-width:7px;}.cls-1{stroke:#e82329;}.cls-2{stroke:#28abe2;}</style></defs><title>AdaptIt</title><g id="Layer_2" data-name="Layer 2"><g id="Layer_2-2" data-name="Layer 2"><path class="cls-1" d="M159.83,12.29c.21-1.15,1.21-5.76,4.95-7.79,4.76-2.58,12.53-.17,17,7.08l21.72,86.88c.88,8.5-3.85,16.41-11.11,19.22-8.63,3.35-19.28-1.07-23.35-10.61Q158.77,71,148.51,34.92A11.21,11.21,0,0,0,128,31.38q-8.15,30.78-16.27,61.54a12.78,12.78,0,1,0,24.75,6.37Q148.17,55.79,159.83,12.29Z"/><circle class="cls-2" cx="24.19" cy="174.27" r="20.69"/><circle class="cls-2" cx="77.64" cy="173.21" r="20.69"/><circle class="cls-2" cx="186" cy="173.21" r="20.69"/><circle class="cls-2" cx="131.09" cy="173.21" r="20.69"/><line class="cls-2" x1="44.88" y1="198.41" x2="44.88" y2="174.27"/><line class="cls-2" x1="98.33" y1="135.81" x2="98.33" y2="173.21"/><line class="cls-2" x1="151.78" y1="198.41" x2="151.78" y2="173.21"/><line class="cls-2" x1="165.31" y1="214.33" x2="165.31" y2="171.84"/><line class="cls-2" x1="270.62" y1="135.81" x2="270.62" y2="198.41"/><line class="cls-2" x1="328.45" y1="140.32" x2="282.29" y2="140.32"/><line class="cls-2" x1="305.37" y1="198.41" x2="305.37" y2="140.32"/><line class="cls-2" x1="237.99" y1="152.52" x2="220.75" y2="152.52"/><path class="cls-2" d="M219.69,135.81v48.34a10.31,10.31,0,0,0,.44,4c1.29,3,3.56,5.57,8.58,6.8,6.77,1.67,11.82-2.83,12.2-3.18"/></g></g></svg>